<?xml version="1.0" standalone="no"?>
<!DOCTYPE svg PUBLIC "-//W3C//DTD SVG 1.1//EN" "http://www.w3.org/Graphics/SVG/1.1/DTD/svg11.dtd">
<svg xmlns:xlink="http://www.w3.org/1999/xlink" width="57.406ex" height="24.843ex" style="vertical-align: -11.838ex;" viewBox="0 -5599.2 24716.4 10696.1" xmlns="http://www.w3.org/2000/svg">
<defs>
<path stroke-width="10" id="E1-MJMAIN-4E" d="M42 46Q74 48 94 56T118 69T128 86V634H124Q114 637 52 637H25V683H232L235 680Q237 679 322 554T493 303L578 178V598Q572 608 568 613T544 627T492 637H475V683H483Q498 680 600 680Q706 680 715 683H724V637H707Q634 633 622 598L621 302V6L614 0H600Q585 0 582 3T481 150T282 443T171 605V345L172 86Q183 50 257 46H274V0H265Q250 3 150 3Q48 3 33 0H25V46H42Z"></path>
<path stroke-width="10" id="E1-MJMAIN-75" d="M383 58Q327 -10 256 -10H249Q124 -10 105 89Q104 96 103 226Q102 335 102 348T96 369Q86 385 36 385H25V408Q25 431 27 431L38 432Q48 433 67 434T105 436Q122 437 142 438T172 441T184 442H187V261Q188 77 190 64Q193 49 204 40Q224 26 264 26Q290 26 311 35T343 58T363 90T375 120T379 144Q379 145 379 161T380 201T380 248V315Q380 361 370 372T320 385H302V431Q304 431 378 436T457 442H464V264Q464 84 465 81Q468 61 479 55T524 46H542V0Q540 0 467 -5T390 -11H383V58Z"></path>
<path stroke-width="10" id="E1-MJMAIN-6D" d="M41 46H55Q94 46 102 60V68Q102 77 102 91T102 122T103 161T103 203Q103 234 103 269T102 328V351Q99 370 88 376T43 385H25V408Q25 431 27 431L37 432Q47 433 65 434T102 436Q119 437 138 438T167 441T178 442H181V402Q181 364 182 364T187 369T199 384T218 402T247 421T285 437Q305 442 336 442Q351 442 364 440T387 434T406 426T421 417T432 406T441 395T448 384T452 374T455 366L457 361L460 365Q463 369 466 373T475 384T488 397T503 410T523 422T546 432T572 439T603 442Q729 442 740 329Q741 322 741 190V104Q741 66 743 59T754 49Q775 46 803 46H819V0H811L788 1Q764 2 737 2T699 3Q596 3 587 0H579V46H595Q656 46 656 62Q657 64 657 200Q656 335 655 343Q649 371 635 385T611 402T585 404Q540 404 506 370Q479 343 472 315T464 232V168V108Q464 78 465 68T468 55T477 49Q498 46 526 46H542V0H534L510 1Q487 2 460 2T422 3Q319 3 310 0H302V46H318Q379 46 379 62Q380 64 380 200Q379 335 378 343Q372 371 358 385T334 402T308 404Q263 404 229 370Q202 343 195 315T187 232V168V108Q187 78 188 68T191 55T200 49Q221 46 249 46H265V0H257L234 1Q210 2 183 2T145 3Q42 3 33 0H25V46H41Z"></path>
<path stroke-width="10" id="E1-MJMAIN-62" d="M307 -11Q234 -11 168 55L158 37Q156 34 153 28T147 17T143 10L138 1L118 0H98V298Q98 599 97 603Q94 622 83 628T38 637H20V660Q20 683 22 683L32 684Q42 685 61 686T98 688Q115 689 135 690T165 693T176 694H179V543Q179 391 180 391L183 394Q186 397 192 401T207 411T228 421T254 431T286 439T323 442Q401 442 461 379T522 216Q522 115 458 52T307 -11ZM182 98Q182 97 187 90T196 79T206 67T218 55T233 44T250 35T271 29T295 26Q330 26 363 46T412 113Q424 148 424 212Q424 287 412 323Q385 405 300 405Q270 405 239 390T188 347L182 339V98Z"></path>
<path stroke-width="10" id="E1-MJMAIN-65" d="M28 218Q28 273 48 318T98 391T163 433T229 448Q282 448 320 430T378 380T406 316T415 245Q415 238 408 231H126V216Q126 68 226 36Q246 30 270 30Q312 30 342 62Q359 79 369 104L379 128Q382 131 395 131H398Q415 131 415 121Q415 117 412 108Q393 53 349 21T250 -11Q155 -11 92 58T28 218ZM333 275Q322 403 238 411H236Q228 411 220 410T195 402T166 381T143 340T127 274V267H333V275Z"></path>
<path stroke-width="10" id="E1-MJMAIN-72" d="M36 46H50Q89 46 97 60V68Q97 77 97 91T98 122T98 161T98 203Q98 234 98 269T98 328L97 351Q94 370 83 376T38 385H20V408Q20 431 22 431L32 432Q42 433 60 434T96 436Q112 437 131 438T160 441T171 442H174V373Q213 441 271 441H277Q322 441 343 419T364 373Q364 352 351 337T313 322Q288 322 276 338T263 372Q263 381 265 388T270 400T273 405Q271 407 250 401Q234 393 226 386Q179 341 179 207V154Q179 141 179 127T179 101T180 81T180 66V61Q181 59 183 57T188 54T193 51T200 49T207 48T216 47T225 47T235 46T245 46H276V0H267Q249 3 140 3Q37 3 28 0H20V46H36Z"></path>
<path stroke-width="10" id="E1-MJMAIN-46" d="M128 619Q121 626 117 628T101 631T58 634H25V680H582V676Q584 670 596 560T610 444V440H570V444Q563 493 561 501Q555 538 543 563T516 601T477 622T431 631T374 633H334H286Q252 633 244 631T233 621Q232 619 232 490V363H284Q287 363 303 363T327 364T349 367T372 373T389 385Q407 403 410 459V480H450V200H410V221Q407 276 389 296Q381 303 371 307T348 313T327 316T303 317T284 317H232V189L233 61Q240 54 245 52T270 48T333 46H360V0H348Q324 3 182 3Q51 3 36 0H25V46H58Q100 47 109 49T128 61V619Z"></path>
<path stroke-width="10" id="E1-MJMAIN-6E" d="M41 46H55Q94 46 102 60V68Q102 77 102 91T102 122T103 161T103 203Q103 234 103 269T102 328V351Q99 370 88 376T43 385H25V408Q25 431 27 431L37 432Q47 433 65 434T102 436Q119 437 138 438T167 441T178 442H181V402Q181 364 182 364T187 369T199 384T218 402T247 421T285 437Q305 442 336 442Q450 438 463 329Q464 322 464 190V104Q464 66 466 59T477 49Q498 46 526 46H542V0H534L510 1Q487 2 460 2T422 3Q319 3 310 0H302V46H318Q379 46 379 62Q380 64 380 200Q379 335 378 343Q372 371 358 385T334 402T308 404Q263 404 229 370Q202 343 195 315T187 232V168V108Q187 78 188 68T191 55T200 49Q221 46 249 46H265V0H257L234 1Q210 2 183 2T145 3Q42 3 33 0H25V46H41Z"></path>
<path stroke-width="10" id="E1-MJMAIN-63" d="M370 305T349 305T313 320T297 358Q297 381 312 396Q317 401 317 402T307 404Q281 408 258 408Q209 408 178 376Q131 329 131 219Q131 137 162 90Q203 29 272 29Q313 29 338 55T374 117Q376 125 379 127T395 129H409Q415 123 415 120Q415 116 411 104T395 71T366 33T318 2T249 -11Q163 -11 99 53T34 214Q34 318 99 383T250 448T370 421T404 357Q404 334 387 320Z"></path>
<path stroke-width="10" id="E1-MJMAIN-74" d="M27 422Q80 426 109 478T141 600V615H181V431H316V385H181V241Q182 116 182 100T189 68Q203 29 238 29Q282 29 292 100Q293 108 293 146V181H333V146V134Q333 57 291 17Q264 -10 221 -10Q187 -10 162 2T124 33T105 68T98 100Q97 107 97 248V385H18V422H27Z"></path>
<path stroke-width="10" id="E1-MJMAIN-69" d="M69 609Q69 637 87 653T131 669Q154 667 171 652T188 609Q188 579 171 564T129 549Q104 549 87 564T69 609ZM247 0Q232 3 143 3Q132 3 106 3T56 1L34 0H26V46H42Q70 46 91 49Q100 53 102 60T104 102V205V293Q104 345 102 359T88 378Q74 385 41 385H30V408Q30 431 32 431L42 432Q52 433 70 434T106 436Q123 437 142 438T171 441T182 442H185V62Q190 52 197 50T232 46H255V0H247Z"></path>
<path stroke-width="10" id="E1-MJMAIN-6F" d="M28 214Q28 309 93 378T250 448Q340 448 405 380T471 215Q471 120 407 55T250 -10Q153 -10 91 57T28 214ZM250 30Q372 30 372 193V225V250Q372 272 371 288T364 326T348 362T317 390T268 410Q263 411 252 411Q222 411 195 399Q152 377 139 338T126 246V226Q126 130 145 91Q177 30 250 30Z"></path>
<path stroke-width="10" id="E1-MJMAIN-64" d="M376 495Q376 511 376 535T377 568Q377 613 367 624T316 637H298V660Q298 683 300 683L310 684Q320 685 339 686T376 688Q393 689 413 690T443 693T454 694H457V390Q457 84 458 81Q461 61 472 55T517 46H535V0Q533 0 459 -5T380 -11H373V44L365 37Q307 -11 235 -11Q158 -11 96 50T34 215Q34 315 97 378T244 442Q319 442 376 393V495ZM373 342Q328 405 260 405Q211 405 173 369Q146 341 139 305T131 211Q131 155 138 120T173 59Q203 26 251 26Q322 26 373 103V342Z"></path>
<path stroke-width="10" id="E1-MJMAIN-66" d="M273 0Q255 3 146 3Q43 3 34 0H26V46H42Q70 46 91 49Q99 52 103 60Q104 62 104 224V385H33V431H104V497L105 564L107 574Q126 639 171 668T266 704Q267 704 275 704T289 705Q330 702 351 679T372 627Q372 604 358 590T321 576T284 590T270 627Q270 647 288 667H284Q280 668 273 668Q245 668 223 647T189 592Q183 572 182 497V431H293V385H185V225Q185 63 186 61T189 57T194 54T199 51T206 49T213 48T222 47T231 47T241 46T251 46H282V0H273Z"></path>
<path stroke-width="10" id="E1-MJMAIN-4C" d="M128 622Q121 629 117 631T101 634T58 637H25V683H36Q48 680 182 680Q324 680 348 683H360V637H333Q273 637 258 635T233 622L232 342V129Q232 57 237 52Q243 47 313 47Q384 47 410 53Q470 70 498 110T536 221Q536 226 537 238T540 261T542 272T562 273H582V268Q580 265 568 137T554 5V0H25V46H58Q100 47 109 49T128 61V622Z"></path>
<path stroke-width="10" id="E1-MJMAIN-61" d="M137 305T115 305T78 320T63 359Q63 394 97 421T218 448Q291 448 336 416T396 340Q401 326 401 309T402 194V124Q402 76 407 58T428 40Q443 40 448 56T453 109V145H493V106Q492 66 490 59Q481 29 455 12T400 -6T353 12T329 54V58L327 55Q325 52 322 49T314 40T302 29T287 17T269 6T247 -2T221 -8T190 -11Q130 -11 82 20T34 107Q34 128 41 147T68 188T116 225T194 253T304 268H318V290Q318 324 312 340Q290 411 215 411Q197 411 181 410T156 406T148 403Q170 388 170 359Q170 334 154 320ZM126 106Q126 75 150 51T209 26Q247 26 276 49T315 109Q317 116 318 175Q318 233 317 233Q309 233 296 232T251 223T193 203T147 166T126 106Z"></path>
<path stroke-width="10" id="E1-MJMAIN-78" d="M201 0Q189 3 102 3Q26 3 17 0H11V46H25Q48 47 67 52T96 61T121 78T139 96T160 122T180 150L226 210L168 288Q159 301 149 315T133 336T122 351T113 363T107 370T100 376T94 379T88 381T80 383Q74 383 44 385H16V431H23Q59 429 126 429Q219 429 229 431H237V385Q201 381 201 369Q201 367 211 353T239 315T268 274L272 270L297 304Q329 345 329 358Q329 364 327 369T322 376T317 380T310 384L307 385H302V431H309Q324 428 408 428Q487 428 493 431H499V385H492Q443 385 411 368Q394 360 377 341T312 257L296 236L358 151Q424 61 429 57T446 50Q464 46 499 46H516V0H510H502Q494 1 482 1T457 2T432 2T414 3Q403 3 377 3T327 1L304 0H295V46H298Q309 46 320 51T331 63Q331 65 291 120L250 175Q249 174 219 133T185 88Q181 83 181 74Q181 63 188 55T206 46Q208 46 208 23V0H201Z"></path>
<path stroke-width="10" id="E1-MJMAIN-70" d="M36 -148H50Q89 -148 97 -134V-126Q97 -119 97 -107T97 -77T98 -38T98 6T98 55T98 106Q98 140 98 177T98 243T98 296T97 335T97 351Q94 370 83 376T38 385H20V408Q20 431 22 431L32 432Q42 433 61 434T98 436Q115 437 135 438T165 441T176 442H179V416L180 390L188 397Q247 441 326 441Q407 441 464 377T522 216Q522 115 457 52T310 -11Q242 -11 190 33L182 40V-45V-101Q182 -128 184 -134T195 -145Q216 -148 244 -148H260V-194H252L228 -193Q205 -192 178 -192T140 -191Q37 -191 28 -194H20V-148H36ZM424 218Q424 292 390 347T305 402Q234 402 182 337V98Q222 26 294 26Q345 26 384 80T424 218Z"></path>
<path stroke-width="10" id="E1-MJMAIN-73" d="M295 316Q295 356 268 385T190 414Q154 414 128 401Q98 382 98 349Q97 344 98 336T114 312T157 287Q175 282 201 278T245 269T277 256Q294 248 310 236T342 195T359 133Q359 71 321 31T198 -10H190Q138 -10 94 26L86 19L77 10Q71 4 65 -1L54 -11H46H42Q39 -11 33 -5V74V132Q33 153 35 157T45 162H54Q66 162 70 158T75 146T82 119T101 77Q136 26 198 26Q295 26 295 104Q295 133 277 151Q257 175 194 187T111 210Q75 227 54 256T33 318Q33 357 50 384T93 424T143 442T187 447H198Q238 447 268 432L283 424L292 431Q302 440 314 448H322H326Q329 448 335 442V310L329 304H301Q295 310 295 316Z"></path>
<path stroke-width="10" id="E1-MJMAIN-30" d="M96 585Q152 666 249 666Q297 666 345 640T423 548Q460 465 460 320Q460 165 417 83Q397 41 362 16T301 -15T250 -22Q224 -22 198 -16T137 16T82 83Q39 165 39 320Q39 494 96 585ZM321 597Q291 629 250 629Q208 629 178 597Q153 571 145 525T137 333Q137 175 145 125T181 46Q209 16 250 16Q290 16 318 46Q347 76 354 130T362 333Q362 478 354 524T321 597Z"></path>
<path stroke-width="10" id="E1-MJMATHI-66" d="M118 -162Q120 -162 124 -164T135 -167T147 -168Q160 -168 171 -155T187 -126Q197 -99 221 27T267 267T289 382V385H242Q195 385 192 387Q188 390 188 397L195 425Q197 430 203 430T250 431Q298 431 298 432Q298 434 307 482T319 540Q356 705 465 705Q502 703 526 683T550 630Q550 594 529 578T487 561Q443 561 443 603Q443 622 454 636T478 657L487 662Q471 668 457 668Q445 668 434 658T419 630Q412 601 403 552T387 469T380 433Q380 431 435 431Q480 431 487 430T498 424Q499 420 496 407T491 391Q489 386 482 386T428 385H372L349 263Q301 15 282 -47Q255 -132 212 -173Q175 -205 139 -205Q107 -205 81 -186T55 -132Q55 -95 76 -78T118 -61Q162 -61 162 -103Q162 -122 151 -136T127 -157L118 -162Z"></path>
<path stroke-width="10" id="E1-MJMATHI-78" d="M52 289Q59 331 106 386T222 442Q257 442 286 424T329 379Q371 442 430 442Q467 442 494 420T522 361Q522 332 508 314T481 292T458 288Q439 288 427 299T415 328Q415 374 465 391Q454 404 425 404Q412 404 406 402Q368 386 350 336Q290 115 290 78Q290 50 306 38T341 26Q378 26 414 59T463 140Q466 150 469 151T485 153H489Q504 153 504 145Q504 144 502 134Q486 77 440 33T333 -11Q263 -11 227 52Q186 -10 133 -10H127Q78 -10 57 16T35 71Q35 103 54 123T99 143Q142 143 142 101Q142 81 130 66T107 46T94 41L91 40Q91 39 97 36T113 29T132 26Q168 26 194 71Q203 87 217 139T245 247T261 313Q266 340 266 352Q266 380 251 392T217 404Q177 404 142 372T93 290Q91 281 88 280T72 278H58Q52 284 52 289Z"></path>
<path stroke-width="10" id="E1-MJMAIN-3D" d="M56 347Q56 360 70 367H707Q722 359 722 347Q722 336 708 328L390 327H72Q56 332 56 347ZM56 153Q56 168 72 173H708Q722 163 722 153Q722 140 707 133H70Q56 140 56 153Z"></path>
<path stroke-width="10" id="E1-MJMATHI-3BB" d="M166 673Q166 685 183 694H202Q292 691 316 644Q322 629 373 486T474 207T524 67Q531 47 537 34T546 15T551 6T555 2T556 -2T550 -11H482Q457 3 450 18T399 152L354 277L340 262Q327 246 293 207T236 141Q211 112 174 69Q123 9 111 -1T83 -12Q47 -12 47 20Q47 37 61 52T199 187Q229 216 266 252T321 306L338 322Q338 323 288 462T234 612Q214 657 183 657Q166 657 166 673Z"></path>
<path stroke-width="10" id="E1-MJMAIN-2E" d="M78 60Q78 84 95 102T138 120Q162 120 180 104T199 61Q199 36 182 18T139 0T96 17T78 60Z"></path>
<path stroke-width="10" id="E1-MJMAIN-31" d="M213 578L200 573Q186 568 160 563T102 556H83V602H102Q149 604 189 617T245 641T273 663Q275 666 285 666Q294 666 302 660V361L303 61Q310 54 315 52T339 48T401 46H427V0H416Q395 3 257 3Q121 3 100 0H88V46H114Q136 46 152 46T177 47T193 50T201 52T207 57T213 61V578Z"></path>
<path stroke-width="10" id="E1-MJMAIN-32" d="M109 429Q82 429 66 447T50 491Q50 562 103 614T235 666Q326 666 387 610T449 465Q449 422 429 383T381 315T301 241Q265 210 201 149L142 93L218 92Q375 92 385 97Q392 99 409 186V189H449V186Q448 183 436 95T421 3V0H50V19V31Q50 38 56 46T86 81Q115 113 136 137Q145 147 170 174T204 211T233 244T261 278T284 308T305 340T320 369T333 401T340 431T343 464Q343 527 309 573T212 619Q179 619 154 602T119 569T109 550Q109 549 114 549Q132 549 151 535T170 489Q170 464 154 447T109 429Z"></path>
<path stroke-width="10" id="E1-MJMAIN-28" d="M94 250Q94 319 104 381T127 488T164 576T202 643T244 695T277 729T302 750H315H319Q333 750 333 741Q333 738 316 720T275 667T226 581T184 443T167 250T184 58T225 -81T274 -167T316 -220T333 -241Q333 -250 318 -250H315H302L274 -226Q180 -141 137 -14T94 250Z"></path>
<path stroke-width="10" id="E1-MJMAIN-29" d="M60 749L64 750Q69 750 74 750H86L114 726Q208 641 251 514T294 250Q294 182 284 119T261 12T224 -76T186 -143T145 -194T113 -227T90 -246Q87 -249 86 -250H74Q66 -250 63 -250T58 -247T55 -238Q56 -237 66 -225Q221 -64 221 250T66 725Q56 737 55 738Q55 746 60 749Z"></path>
<path stroke-width="10" id="E1-MJMAIN-33" d="M127 463Q100 463 85 480T69 524Q69 579 117 622T233 665Q268 665 277 664Q351 652 390 611T430 522Q430 470 396 421T302 350L299 348Q299 347 308 345T337 336T375 315Q457 262 457 175Q457 96 395 37T238 -22Q158 -22 100 21T42 130Q42 158 60 175T105 193Q133 193 151 175T169 130Q169 119 166 110T159 94T148 82T136 74T126 70T118 67L114 66Q165 21 238 21Q293 21 321 74Q338 107 338 175V195Q338 290 274 322Q259 328 213 329L171 330L168 332Q166 335 166 348Q166 366 174 366Q202 366 232 371Q266 376 294 413T322 525V533Q322 590 287 612Q265 626 240 626Q208 626 181 615T143 592T132 580H135Q138 579 143 578T153 573T165 566T175 555T183 540T186 520Q186 498 172 481T127 463Z"></path>
<path stroke-width="10" id="E1-MJMAIN-22EE" d="M78 30Q78 54 95 72T138 90Q162 90 180 74T199 31Q199 6 182 -12T139 -30T96 -13T78 30ZM78 440Q78 464 95 482T138 500Q162 500 180 484T199 441Q199 416 182 398T139 380T96 397T78 440ZM78 840Q78 864 95 882T138 900Q162 900 180 884T199 841Q199 816 182 798T139 780T96 797T78 840Z"></path>
<path stroke-width="10" id="E1-MJMATHI-6E" d="M21 287Q22 293 24 303T36 341T56 388T89 425T135 442Q171 442 195 424T225 390T231 369Q231 367 232 367L243 378Q304 442 382 442Q436 442 469 415T503 336T465 179T427 52Q427 26 444 26Q450 26 453 27Q482 32 505 65T540 145Q542 153 560 153Q580 153 580 145Q580 144 576 130Q568 101 554 73T508 17T439 -10Q392 -10 371 17T350 73Q350 92 386 193T423 345Q423 404 379 404H374Q288 404 229 303L222 291L189 157Q156 26 151 16Q138 -11 108 -11Q95 -11 87 -5T76 7T74 17Q74 30 112 180T152 343Q153 348 153 366Q153 405 129 405Q91 405 66 305Q60 285 60 284Q58 278 41 278H27Q21 284 21 287Z"></path>
</defs>
<g stroke="currentColor" fill="currentColor" stroke-width="0" transform="matrix(1 0 0 -1 0 0)">
<g transform="translate(167,0)">
<g transform="translate(389,0)">
<g transform="translate(0,4489)">
 <use xlink:href="#E1-MJMAIN-4E"></use>
 <use xlink:href="#E1-MJMAIN-75" x="755" y="0"></use>
 <use xlink:href="#E1-MJMAIN-6D" x="1316" y="0"></use>
 <use xlink:href="#E1-MJMAIN-62" x="2154" y="0"></use>
 <use xlink:href="#E1-MJMAIN-65" x="2715" y="0"></use>
 <use xlink:href="#E1-MJMAIN-72" x="3164" y="0"></use>
</g>
 <use xlink:href="#E1-MJMAIN-30" x="3056" y="3085"></use>
 <use xlink:href="#E1-MJMAIN-31" x="3056" y="1670"></use>
 <use xlink:href="#E1-MJMAIN-32" x="3056" y="255"></use>
 <use xlink:href="#E1-MJMAIN-33" x="3056" y="-1205"></use>
 <use xlink:href="#E1-MJMAIN-22EE" x="3278" y="-3175"></use>
 <use xlink:href="#E1-MJMATHI-6E" x="2956" y="-4575"></use>
</g>
<line stroke-linecap="square" stroke-width="20.9" y1="10" x2="10" x1="10" y2="10499" transform="translate(4450,-5005)"></line>
<g transform="translate(4950,0)">
<g transform="translate(0,4489)">
 <use xlink:href="#E1-MJMAIN-46"></use>
 <use xlink:href="#E1-MJMAIN-75" x="658" y="0"></use>
 <use xlink:href="#E1-MJMAIN-6E" x="1219" y="0"></use>
 <use xlink:href="#E1-MJMAIN-63" x="1780" y="0"></use>
 <use xlink:href="#E1-MJMAIN-74" x="2229" y="0"></use>
 <use xlink:href="#E1-MJMAIN-69" x="2623" y="0"></use>
 <use xlink:href="#E1-MJMAIN-6F" x="2906" y="0"></use>
 <use xlink:href="#E1-MJMAIN-6E" x="3411" y="0"></use>
 <use xlink:href="#E1-MJMAIN-64" x="4222" y="0"></use>
 <use xlink:href="#E1-MJMAIN-65" x="4783" y="0"></use>
 <use xlink:href="#E1-MJMAIN-66" x="5232" y="0"></use>
 <use xlink:href="#E1-MJMAIN-69" x="5543" y="0"></use>
 <use xlink:href="#E1-MJMAIN-6E" x="5826" y="0"></use>
 <use xlink:href="#E1-MJMAIN-69" x="6387" y="0"></use>
 <use xlink:href="#E1-MJMAIN-74" x="6670" y="0"></use>
 <use xlink:href="#E1-MJMAIN-69" x="7064" y="0"></use>
 <use xlink:href="#E1-MJMAIN-6F" x="7347" y="0"></use>
 <use xlink:href="#E1-MJMAIN-6E" x="7852" y="0"></use>
</g>
<g transform="translate(0,3085)">
 <use xlink:href="#E1-MJMAIN-30" x="0" y="0"></use>
 <use xlink:href="#E1-MJMATHI-66" x="755" y="0"></use>
 <use xlink:href="#E1-MJMATHI-78" x="1560" y="0"></use>
 <use xlink:href="#E1-MJMAIN-3D" x="2414" y="0"></use>
 <use xlink:href="#E1-MJMATHI-78" x="3475" y="0"></use>
</g>
<g transform="translate(0,1670)">
 <use xlink:href="#E1-MJMAIN-31" x="0" y="0"></use>
 <use xlink:href="#E1-MJMATHI-66" x="755" y="0"></use>
 <use xlink:href="#E1-MJMATHI-78" x="1560" y="0"></use>
 <use xlink:href="#E1-MJMAIN-3D" x="2414" y="0"></use>
 <use xlink:href="#E1-MJMATHI-66" x="3475" y="0"></use>
 <use xlink:href="#E1-MJMATHI-78" x="4280" y="0"></use>
</g>
<g transform="translate(0,255)">
 <use xlink:href="#E1-MJMAIN-32" x="0" y="0"></use>
 <use xlink:href="#E1-MJMATHI-66" x="755" y="0"></use>
 <use xlink:href="#E1-MJMATHI-78" x="1560" y="0"></use>
 <use xlink:href="#E1-MJMAIN-3D" x="2414" y="0"></use>
 <use xlink:href="#E1-MJMATHI-66" x="3475" y="0"></use>
 <use xlink:href="#E1-MJMAIN-28" x="4280" y="0"></use>
 <use xlink:href="#E1-MJMATHI-66" x="4674" y="0"></use>
 <use xlink:href="#E1-MJMATHI-78" x="5479" y="0"></use>
 <use xlink:href="#E1-MJMAIN-29" x="6056" y="0"></use>
</g>
<g transform="translate(0,-1205)">
 <use xlink:href="#E1-MJMAIN-33" x="0" y="0"></use>
 <use xlink:href="#E1-MJMATHI-66" x="755" y="0"></use>
 <use xlink:href="#E1-MJMATHI-78" x="1560" y="0"></use>
 <use xlink:href="#E1-MJMAIN-3D" x="2414" y="0"></use>
 <use xlink:href="#E1-MJMATHI-66" x="3475" y="0"></use>
 <use xlink:href="#E1-MJMAIN-28" x="4280" y="0"></use>
 <use xlink:href="#E1-MJMATHI-66" x="4674" y="0"></use>
 <use xlink:href="#E1-MJMAIN-28" x="5479" y="0"></use>
 <use xlink:href="#E1-MJMATHI-66" x="5873" y="0"></use>
 <use xlink:href="#E1-MJMATHI-78" x="6678" y="0"></use>
 <use xlink:href="#E1-MJMAIN-29" x="7255" y="0"></use>
 <use xlink:href="#E1-MJMAIN-29" x="7649" y="0"></use>
</g>
 <use xlink:href="#E1-MJMAIN-22EE" x="0" y="-3175"></use>
<g transform="translate(0,-4575)">
 <use xlink:href="#E1-MJMATHI-6E" x="0" y="0"></use>
 <use xlink:href="#E1-MJMATHI-66" x="855" y="0"></use>
 <use xlink:href="#E1-MJMATHI-78" x="1660" y="0"></use>
 <use xlink:href="#E1-MJMAIN-3D" x="2514" y="0"></use>
<g transform="translate(3575,0)">
 <use xlink:href="#E1-MJMATHI-66" x="0" y="0"></use>
 <use transform="scale(0.707)" xlink:href="#E1-MJMATHI-6E" x="810" y="513"></use>
</g>
 <use xlink:href="#E1-MJMATHI-78" x="4926" y="0"></use>
</g>
</g>
<line stroke-linecap="square" stroke-width="20.9" y1="10" x2="10" x1="10" y2="10499" transform="translate(13863,-5005)"></line>
<g transform="translate(14363,0)">
<g transform="translate(0,4489)">
 <use xlink:href="#E1-MJMAIN-4C"></use>
 <use xlink:href="#E1-MJMAIN-61" x="630" y="0"></use>
 <use xlink:href="#E1-MJMAIN-6D" x="1135" y="0"></use>
 <use xlink:href="#E1-MJMAIN-62" x="1973" y="0"></use>
 <use xlink:href="#E1-MJMAIN-64" x="2534" y="0"></use>
 <use xlink:href="#E1-MJMAIN-61" x="3095" y="0"></use>
 <use xlink:href="#E1-MJMAIN-65" x="3850" y="0"></use>
 <use xlink:href="#E1-MJMAIN-78" x="4299" y="0"></use>
 <use xlink:href="#E1-MJMAIN-70" x="4832" y="0"></use>
 <use xlink:href="#E1-MJMAIN-72" x="5393" y="0"></use>
 <use xlink:href="#E1-MJMAIN-65" x="5790" y="0"></use>
 <use xlink:href="#E1-MJMAIN-73" x="6239" y="0"></use>
 <use xlink:href="#E1-MJMAIN-73" x="6638" y="0"></use>
 <use xlink:href="#E1-MJMAIN-69" x="7037" y="0"></use>
 <use xlink:href="#E1-MJMAIN-6F" x="7320" y="0"></use>
 <use xlink:href="#E1-MJMAIN-6E" x="7825" y="0"></use>
</g>
<g transform="translate(0,3085)">
 <use xlink:href="#E1-MJMAIN-30" x="0" y="0"></use>
 <use xlink:href="#E1-MJMAIN-3D" x="782" y="0"></use>
 <use xlink:href="#E1-MJMATHI-3BB" x="1843" y="0"></use>
 <use xlink:href="#E1-MJMATHI-66" x="2431" y="0"></use>
 <use xlink:href="#E1-MJMAIN-2E" x="2986" y="0"></use>
 <use xlink:href="#E1-MJMATHI-3BB" x="3436" y="0"></use>
 <use xlink:href="#E1-MJMATHI-78" x="4024" y="0"></use>
 <use xlink:href="#E1-MJMAIN-2E" x="4601" y="0"></use>
 <use xlink:href="#E1-MJMATHI-78" x="5050" y="0"></use>
</g>
<g transform="translate(0,1670)">
 <use xlink:href="#E1-MJMAIN-31" x="0" y="0"></use>
 <use xlink:href="#E1-MJMAIN-3D" x="782" y="0"></use>
 <use xlink:href="#E1-MJMATHI-3BB" x="1843" y="0"></use>
 <use xlink:href="#E1-MJMATHI-66" x="2431" y="0"></use>
 <use xlink:href="#E1-MJMAIN-2E" x="2986" y="0"></use>
 <use xlink:href="#E1-MJMATHI-3BB" x="3436" y="0"></use>
 <use xlink:href="#E1-MJMATHI-78" x="4024" y="0"></use>
 <use xlink:href="#E1-MJMAIN-2E" x="4601" y="0"></use>
 <use xlink:href="#E1-MJMATHI-66" x="5050" y="0"></use>
 <use xlink:href="#E1-MJMATHI-78" x="5855" y="0"></use>
</g>
<g transform="translate(0,255)">
 <use xlink:href="#E1-MJMAIN-32" x="0" y="0"></use>
 <use xlink:href="#E1-MJMAIN-3D" x="782" y="0"></use>
 <use xlink:href="#E1-MJMATHI-3BB" x="1843" y="0"></use>
 <use xlink:href="#E1-MJMATHI-66" x="2431" y="0"></use>
 <use xlink:href="#E1-MJMAIN-2E" x="2986" y="0"></use>
 <use xlink:href="#E1-MJMATHI-3BB" x="3436" y="0"></use>
 <use xlink:href="#E1-MJMATHI-78" x="4024" y="0"></use>
 <use xlink:href="#E1-MJMAIN-2E" x="4601" y="0"></use>
 <use xlink:href="#E1-MJMATHI-66" x="5050" y="0"></use>
 <use xlink:href="#E1-MJMAIN-28" x="5855" y="0"></use>
 <use xlink:href="#E1-MJMATHI-66" x="6249" y="0"></use>
 <use xlink:href="#E1-MJMATHI-78" x="7054" y="0"></use>
 <use xlink:href="#E1-MJMAIN-29" x="7631" y="0"></use>
</g>
<g transform="translate(0,-1205)">
 <use xlink:href="#E1-MJMAIN-33" x="0" y="0"></use>
 <use xlink:href="#E1-MJMAIN-3D" x="782" y="0"></use>
 <use xlink:href="#E1-MJMATHI-3BB" x="1843" y="0"></use>
 <use xlink:href="#E1-MJMATHI-66" x="2431" y="0"></use>
 <use xlink:href="#E1-MJMAIN-2E" x="2986" y="0"></use>
 <use xlink:href="#E1-MJMATHI-3BB" x="3436" y="0"></use>
 <use xlink:href="#E1-MJMATHI-78" x="4024" y="0"></use>
 <use xlink:href="#E1-MJMAIN-2E" x="4601" y="0"></use>
 <use xlink:href="#E1-MJMATHI-66" x="5050" y="0"></use>
 <use xlink:href="#E1-MJMAIN-28" x="5855" y="0"></use>
 <use xlink:href="#E1-MJMATHI-66" x="6249" y="0"></use>
 <use xlink:href="#E1-MJMAIN-28" x="7054" y="0"></use>
 <use xlink:href="#E1-MJMATHI-66" x="7448" y="0"></use>
 <use xlink:href="#E1-MJMATHI-78" x="8253" y="0"></use>
 <use xlink:href="#E1-MJMAIN-29" x="8830" y="0"></use>
 <use xlink:href="#E1-MJMAIN-29" x="9224" y="0"></use>
</g>
 <use xlink:href="#E1-MJMAIN-22EE" x="0" y="-3175"></use>
<g transform="translate(0,-4575)">
 <use xlink:href="#E1-MJMATHI-6E" x="0" y="0"></use>
 <use xlink:href="#E1-MJMAIN-3D" x="882" y="0"></use>
 <use xlink:href="#E1-MJMATHI-3BB" x="1943" y="0"></use>
 <use xlink:href="#E1-MJMATHI-66" x="2531" y="0"></use>
 <use xlink:href="#E1-MJMAIN-2E" x="3086" y="0"></use>
 <use xlink:href="#E1-MJMATHI-3BB" x="3536" y="0"></use>
 <use xlink:href="#E1-MJMATHI-78" x="4124" y="0"></use>
 <use xlink:href="#E1-MJMAIN-2E" x="4701" y="0"></use>
<g transform="translate(5150,0)">
 <use xlink:href="#E1-MJMATHI-66" x="0" y="0"></use>
 <use transform="scale(0.707)" xlink:href="#E1-MJMATHI-6E" x="810" y="513"></use>
</g>
 <use xlink:href="#E1-MJMATHI-78" x="6501" y="0"></use>
</g>
</g>
<line stroke-linecap="square" stroke-width="20.9" y2="10" y1="10" x1="10" x2="24371" transform="translate(0,4075)"></line>
</g>
</g>
</svg>